<svg width="24" height="24" viewBox="0 0 24 24" fill="none" xmlns="http://www.w3.org/2000/svg">
<path d="M7.42764 15.764C0.993746 15.3927 1.007 8.0848 6.61043 7.0927C6.69058 7.07851 6.75848 7.01464 6.77849 6.93574C8.75277 -0.848789 20.7744 2.67971 18.2826 9.32796C18.2309 9.46599 18.333 9.62299 18.4803 9.62929C22.2354 9.78995 22.8812 15.4368 18.1608 15.7834" stroke="black" stroke-width="1.5" stroke-linecap="round"/>
<path d="M10.1432 17.3811H11.5283V20.9309C11.5283 21.4535 12.1201 21.7 12.4339 21.3056L15.8273 17.0655C16.1232 16.6958 15.8856 16.1189 15.4373 16.1189H14.0522V12.5691C14.0522 12.0465 13.4604 11.8 13.1466 12.1944L9.75315 16.4345C9.46177 16.8042 9.69936 17.3811 10.1432 17.3811Z" stroke="black" stroke-width="1.5" stroke-miterlimit="10" stroke-linecap="round" stroke-linejoin="round"/>
</svg>
