<svg width="24" height="24" viewBox="0 0 24 24" fill="none" xmlns="http://www.w3.org/2000/svg">
<path d="M19.0918 11.7033C21.2028 5.84008 10.8201 2.73918 9.09762 9.60143C9.07778 9.68047 9.01005 9.7446 8.9299 9.75934C3.83228 10.697 4.09168 17.7934 10.5707 17.4368C12.0811 17.3537 16.2774 17.4581 18.2133 17.4581C23.109 17.7429 22.7035 12.196 19.2908 12.0049C19.1442 11.9966 19.042 11.8415 19.0918 11.7033Z" stroke="black" stroke-width="1.5"/>
<path d="M19.1984 19.606L18.0881 21.5469" stroke="black" stroke-width="1.5" stroke-linecap="round"/>
<path d="M14 19.25L13.2073 20.4391C13.1187 20.572 13.214 20.75 13.3737 20.75H14.1263C14.286 20.75 14.3813 20.928 14.2927 21.0609L13.5 22.25" stroke="black" stroke-width="1.2" stroke-linecap="round"/>
<path d="M9.39846 19.606L8.28819 21.5469" stroke="black" stroke-width="1.5" stroke-linecap="round"/>
<path d="M9.06927 2.8433L9.44722 1.98066M5.59229 2.69358L5.26291 1.75M2 9.19722L2.86053 8.8633M3.03695 5.18407L2.21877 4.78558M9.14988 5.18663C8.41594 4.3799 7.27163 4.06113 6.21302 4.47192C4.78724 5.02517 4.05681 6.69229 4.58156 8.19552C4.69165 8.51091 4.84825 8.79402 5.04016 9.03942" stroke="black" stroke-width="1.5" stroke-linecap="round"/>
</svg>
