<svg width="24" height="24" viewBox="0 0 24 24" fill="none" xmlns="http://www.w3.org/2000/svg">
<path fill-rule="evenodd" clip-rule="evenodd" d="M16.5999 12.0309C15.1751 11.6206 13.6447 11.8068 12.3598 12.5467C10.6238 13.5465 8.53631 13.7332 6.65046 13.0574L4.26491 12.2026C3.91126 12.0759 3.72729 11.6865 3.85402 11.3328C3.98075 10.9792 4.37017 10.7952 4.72383 10.9219L7.10938 11.7767C8.61939 12.3178 10.2909 12.1683 11.6809 11.3678C13.2856 10.4437 15.1969 10.2111 16.9764 10.7235L19.194 11.3621C19.555 11.466 19.7634 11.843 19.6594 12.204C19.5555 12.565 19.1785 12.7734 18.8175 12.6694L16.5999 12.0309Z" fill="black"/>
<path fill-rule="evenodd" clip-rule="evenodd" d="M17.7878 17.4559C15.9809 17.039 14.0614 17.2426 12.373 18.0191C10.2556 18.9929 7.832 19.1884 5.58747 18.545L2.49295 17.6579C2.13182 17.5544 1.92299 17.1777 2.02651 16.8166C2.13004 16.4554 2.50671 16.2466 2.86784 16.3501L5.96236 17.2372C7.88985 17.7898 9.97895 17.6227 11.8046 16.7831C13.7629 15.8825 15.9896 15.6448 18.0937 16.1303L20.9726 16.7947C21.3386 16.8792 21.5669 17.2444 21.4824 17.6105C21.398 17.9765 21.0327 18.2048 20.6667 18.1203L17.7878 17.4559Z" fill="black"/>
<path fill-rule="evenodd" clip-rule="evenodd" d="M17.7878 6.57243C15.9809 6.15544 14.0614 6.35912 12.373 7.1356C10.2556 8.10939 7.832 8.30491 5.58747 7.66148L2.49295 6.77439C2.13182 6.67086 1.92299 6.29418 2.02651 5.93305C2.13004 5.57192 2.50671 5.36309 2.86784 5.46662L5.96236 6.35371C7.88985 6.90626 9.97895 6.7392 11.8046 5.89961C13.7629 4.99899 15.9896 4.76126 18.0937 5.24683L20.9726 5.91118C21.3386 5.99565 21.5669 6.36088 21.4824 6.72694C21.398 7.09299 21.0327 7.32126 20.6667 7.23678L17.7878 6.57243Z" fill="black"/>
</svg>
