<svg width="24" height="24" viewBox="0 0 24 24" fill="none" xmlns="http://www.w3.org/2000/svg">
<path d="M9.83308 15.6342C9.32305 16.0847 8.9622 16.6798 8.79846 17.3403C8.63472 18.0008 8.67584 18.6955 8.91637 19.3321C9.15689 19.9687 9.58543 20.5171 10.145 20.9043C10.7047 21.2915 11.3688 21.4993 12.0494 21.5C12.7299 21.5007 13.3945 21.2943 13.9549 20.9083C14.5154 20.5223 14.9451 19.9748 15.1869 19.3387C15.4288 18.7026 15.4714 18.008 15.309 17.3471C15.1467 16.6863 14.7871 16.0905 14.278 15.6388M14.2882 15.3529V4.73529C14.2882 3.50078 13.2874 2.5 12.0529 2.5C10.8184 2.5 9.81762 3.50078 9.81762 4.73529V15.3529" stroke="black" stroke-width="1.5" stroke-linecap="round"/>
<path d="M12.0499 18.4H12.0599" stroke="black" stroke-width="2.8" stroke-linecap="round"/>
<path d="M12.08 18.5V10" stroke="black" stroke-width="1.5" stroke-linecap="round"/>
</svg>
